<?xml version="1.0" encoding="UTF-8" standalone="no"?>
<svg
   xmlns:dc="http://purl.org/dc/elements/1.1/"
   xmlns:cc="http://creativecommons.org/ns#"
   xmlns:rdf="http://www.w3.org/1999/02/22-rdf-syntax-ns#"
   xmlns:svg="http://www.w3.org/2000/svg"
   xmlns="http://www.w3.org/2000/svg"
   version="1.1"
   id="svg4251"
   viewBox="0 0 626.41626 510"
   height="143.93333mm"
   width="176.78859mm">
  <defs
     id="defs4253" />
  <metadata
     id="metadata4256">
    <rdf:RDF>
      <cc:Work
         rdf:about="">
        <dc:format>image/svg+xml</dc:format>
        <dc:type
           rdf:resource="http://purl.org/dc/dcmitype/StillImage" />
        <dc:title></dc:title>
      </cc:Work>
    </rdf:RDF>
  </metadata>
  <g
     transform="translate(-6.79182,-251.64792)"
     id="layer1">
    <path
       id="rect4199"
       d="m 483.2081,251.64792 40.20523,0 109.79477,118.84274 0,41.15726 -150,0 z"
       style="color:#000000;overflow:visible;opacity:1;fill:#808080;fill-opacity:1;stroke:none;stroke-width:15;stroke-linecap:round;stroke-linejoin:round;stroke-miterlimit:4;stroke-dasharray:none;stroke-dashoffset:0;stroke-opacity:1" />
    <path
       id="rect4185"
       d="m 183.2081,251.64792 340.97226,0 0.0235,91.2767 c 0.004,16.62 14.15081,30.35403 30.76703,30 l 78.23721,-1.66693 0,360.39023 c 0,16.62 -13.38,30 -30,30 l -420,0 c -16.62,0 -30,-13.38 -30,-30 l 0,-450 c 0,-16.62 13.38,-30 30,-30 z"
       style="color:#000000;overflow:visible;opacity:1;fill:#bfbfbf;fill-opacity:1;stroke:none;stroke-width:15;stroke-linecap:round;stroke-linejoin:round;stroke-miterlimit:4;stroke-dasharray:none;stroke-dashoffset:0;stroke-opacity:1" />
    <path
       id="rect4187-5"
       d="m 156.47138,490.43358 400.71398,0 c 21.41927,0 38.66294,17.24367 38.66294,38.66294 l 0,141.76411 c 0,21.41926 -17.24367,38.66293 -38.66294,38.66293 l -403.78211,0 z"
       style="color:#000000;overflow:visible;opacity:0.31761008;fill:#808080;fill-opacity:1;stroke:none;stroke-width:15;stroke-linecap:round;stroke-linejoin:round;stroke-miterlimit:4;stroke-dasharray:none;stroke-dashoffset:0;stroke-opacity:1" />
    <g
       transform="matrix(1.2887646,0,0,1.2887646,1037.8035,131.69251)"
       id="g4193">
      <rect
         style="color:#000000;overflow:visible;opacity:1;fill:#ee2a2a;fill-opacity:1;stroke:none;stroke-width:15;stroke-linecap:round;stroke-linejoin:round;stroke-miterlimit:4;stroke-dasharray:none;stroke-dashoffset:0;stroke-opacity:1"
         id="rect4187"
         width="440"
         height="170"
         x="-800"
         y="262"
         rx="30"
         ry="30" />
      <text
         xml:space="preserve"
         style="font-style:normal;font-weight:normal;font-size:25px;line-height:1000%;font-family:sans-serif;letter-spacing:0px;word-spacing:0px;fill:#000000;fill-opacity:1;stroke:none;stroke-width:1px;stroke-linecap:butt;stroke-linejoin:miter;stroke-opacity:1"
         x="-721.35742"
         y="400.32031"
         id="text4189"><tspan
           id="tspan4191"
           x="-721.35742"
           y="400.32031"
           style="font-style:normal;font-variant:normal;font-weight:bold;font-stretch:normal;font-size:150px;font-family:Roboto;-inkscape-font-specification:'Roboto Bold';fill:#ffffff">PDF</tspan></text>
    </g>
  </g>
</svg>
