<svg width="222.83mm" height="58.41mm" version="1.1" viewBox="0 0 222.83 58.41" xmlns="http://www.w3.org/2000/svg" xmlns:cc="http://creativecommons.org/ns#" xmlns:dc="http://purl.org/dc/elements/1.1/" xmlns:rdf="http://www.w3.org/1999/02/22-rdf-syntax-ns#">
 <metadata>
  <rdf:RDF>
   <cc:Work rdf:about="">
    <dc:format>image/svg+xml</dc:format>
    <dc:type rdf:resource="http://purl.org/dc/dcmitype/StillImage"/>
    <dc:title/>
   </cc:Work>
  </rdf:RDF>
 </metadata>
 <g transform="translate(-3.4912 -118.96)">
  <g transform="matrix(.26458 0 0 .26458 -10.296 96.043)" fill-rule="evenodd">
   <g fill="#fe8ad4">
    <path id="Fill-429-Copy" d="m159.18 229.63c-57.346 0.58394-65.984 48.619-107.07 74.594v3.1621h221.61c-38.936-22.97-53.332-78.379-114.54-77.756z" opacity=".24892" stop-color="#000000" style="font-variation-settings:normal"/>
    <path d="m352.18 198.63c-67.205 0.86856-67.504 84.465-131.55 108.76h265.89c-55.437-16.093-63.797-109.67-134.34-108.76z" opacity=".49806" stop-color="#000000" style="font-variation-settings:normal"/>
    <path d="m766.01 89.623c-93.178 0-131.19 194.67-184.28 217.76h312.56v-91.818c-33.844-59.778-73.936-125.94-128.28-125.94z" stop-color="#000000" style="font-variation-settings:normal"/>
    <path d="m566.99 149.62c-79.333 0.50631-72.803 137.2-170.38 157.76h323.86c-64.096-3.1958-70.872-158.29-153.48-157.76z" opacity=".7493" stop-color="#000000" style="font-variation-settings:normal"/>
   </g>
   <g fill="#ff7900">
    <rect x="761.49" y="86.622" width="6" height="6"/>
    <rect x="348.49" y="196.62" width="6" height="6"/>
    <rect x="560.49" y="147.62" width="6" height="6"/>
    <rect x="154.49" y="227.62" width="6" height="6"/>
   </g>
  </g>
 </g>
</svg>