<svg
   width="222.83mm"
   height="58.41mm"
   viewBox="0 0 222.82999 58.410002"
   version="1.1"
   id="svg13488"
   xmlns="http://www.w3.org/2000/svg"
   xmlns:svg="http://www.w3.org/2000/svg">
  <defs
     id="defs13485">
    <mask
       id="mask-2"
       fill="#ffffff">
      <circle
         id="use2979"
         cx="88"
         cy="88"
         r="88" />
    </mask>
  </defs>
  <g
     id="Group-13"
     transform="matrix(0.26458333,0,0,0.26458333,43.153568,-52.930693)"
     fill="#ffffff">
    <g
       id="Group"
       transform="translate(-226.8767,210.03244)"
       fill="#085ebd">
      <path
         d="M 129.04178,244 0,230.76679 C 98.588426,227.5491 87.512104,140.7911 164.69142,140.00521 241.87074,139.21933 244.60837,227.5491 316,227.5491"
         id="Fill-429-Copy"
         opacity="0.248919" />
      <path
         d="M 322.04178,241 193,224.204 C 291.58843,220.12001 280.5121,110.00408 357.69142,109.00662 434.87074,108.00915 437.60837,220.12001 509,220.12001"
         id="Fill-429"
         opacity="0.498058" />
      <path
         d="M 975,220 C 922.43473,220 870.57279,0 771.52068,0 672.46858,0 635.7546,220 577,220"
         id="Fill-426" />
      <path
         d="M 386,220 C 500.62056,211.81906 489.03745,60.534028 572.50386,60.001341 655.97027,59.468653 662.01638,217.81734 728,217.81734"
         id="Fill-432"
         opacity="0.749302" />
    </g>
  </g>
</svg>
