<svg xmlns="http://www.w3.org/2000/svg" viewBox="0 0 18.96 34.396" height="130" width="71.66">
  <path fill="#fff" d="M1.375 2.96h16.21v25.304H1.376z"/>
  <path d="M2.11 0C.94 0 0 .94 0 2.11v30.176c0 1.169.941 2.11 2.11 2.11h14.74c1.17 0 2.11-.941 2.11-2.11V2.11C18.96.94 18.02 0 16.85 0zm-.736 2.96h16.212v25.304H1.374z"/>
  <path fill="#f46c20" d="M7.965 29.814h3.03v3.031h-3.03z"/>
  <path d="M6.409 13.308v4.835c0 .44.356.797.797.797h.226v1.813c0 .411.362.746.773.746a.76.76 0 00.763-.747V18.94h1.024v1.813c0 .411.362.746.773.746a.76.76 0 00.763-.747V18.94l.227-.001c.44 0 .797-.356.797-.797v-4.834zm8.19.753a.77.77 0 00-.768-.753.771.771 0 00-.768.754v3.126c0 .412.356.728.768.728.412 0 .768-.315.768-.728zm-8.702 0a.77.77 0 00-.768-.753.771.771 0 00-.768.754v3.126c0 .412.355.728.768.728.412 0 .768-.315.768-.728zm5.094-3.743l.48-.951c.036-.068-.01-.154-.083-.154a.095.095 0 00-.084.054l-.485.961a3.16 3.16 0 00-2.677 0l-.486-.961a.095.095 0 00-.084-.054c-.074 0-.119.086-.084.154l.481.951c-.944.53-1.56 1.323-1.56 2.478h6.143c0-1.155-.617-1.948-1.561-2.478zM8.2 11.773a.257.257 0 010-.512.256.256 0 010 .512zm2.558 0a.256.256 0 110-.512.256.256 0 010 .512z" fill="#50bd8d"/>
</svg>
