<svg xmlns="http://www.w3.org/2000/svg" viewBox="0 0 34.66 40.101" height="151.563" width="131">
  <defs>
    <clipPath id="a" clipPathUnits="userSpaceOnUse">
      <rect ry="3" rx="3.336" y="261.565" x="-379.772" height="16.442" width="64.634" fill="#8f8f8f" stroke-width=".794" stroke-linejoin="round"/>
    </clipPath>
  </defs>
  <g transform="translate(176.27 -174.707)">
    <rect width="31.294" height="23.072" x="-174.586" y="178.45" rx="1.792" ry="1.792"/>
    <rect width="58.019" height="9.544" x="-377.504" y="256.557" rx="3.336" ry="3" clip-path="url(#a)" transform="matrix(-.5974 0 0 -.5974 -367.127 333.674)"/>
    <path fill="#fff" d="M-172.278 180.723h2.258v2.258h-2.258zM-169.227 180.723h2.258v2.258h-2.258zM-166.176 180.723h2.258v2.258h-2.258zM-163.125 180.723h2.258v2.258h-2.258zM-160.074 180.723h2.258v2.258h-2.258zM-157.023 182.981h2.258v-2.258h-2.258zM-153.972 182.981h2.258v-2.258h-2.258zM-150.921 182.981h2.258v-2.258h-2.258zM-147.869 182.981h2.258v-2.258h-2.258zM-172.259 183.899h2.258v5.451h-2.258zM-169.207 183.899h2.258v2.258h-2.258zM-166.156 183.899h2.258v2.258h-2.258zM-163.105 183.899h2.258v2.258h-2.258zM-160.054 183.899h2.258v2.258h-2.258zM-157.003 186.157h2.258v-2.258h-2.258zM-153.952 186.157h2.258v-2.258h-2.258zM-150.901 186.157h2.258v-2.258h-2.258zM-147.849 186.157h2.258v-2.258h-2.258zM-169.215 187.105h2.258v2.258h-2.258zM-166.164 187.105h2.258v2.258h-2.258zM-163.113 187.105h2.258v2.258h-2.258zM-160.062 187.105h2.258v2.258h-2.258zM-157.011 189.363h2.258v-2.258h-2.258zM-153.96 189.363h2.258v-2.258h-2.258zM-150.909 189.363h2.258v-2.258h-2.258zM-147.857 189.363h2.258v-2.258h-2.258zM-172.286 190.241h2.258v2.258h-2.258zM-169.235 190.241h2.258v2.258h-2.258zM-166.184 190.241h2.258v2.258h-2.258zM-163.133 190.241h8.365v2.258h-8.365zM-153.98 192.499h2.258v-2.258h-2.258zM-150.929 192.499h2.258v-2.258h-2.258zM-147.877 192.499h2.258v-2.258h-2.258z"/>
    <rect width="8.552" height="6.435" x="-163.162" y="193.876" rx=".597" ry=".597" fill="#fff"/>
    <g transform="matrix(.5974 0 0 .5974 49.103 21.103)">
      <g fill="#724e47">
        <rect width="3.742" height="16.036" x="-371.705" y="293.258" rx="2" ry="2"/>
        <rect width="3.742" height="16.036" x="-367.963" y="293.258" rx="2" ry="2"/>
        <rect width="3.742" height="16.036" x="-364.222" y="293.258" rx="2" ry="2"/>
        <rect width="3.742" height="16.036" x="-360.48" y="283.041" rx="2" ry="2"/>
        <rect width="3.742" height="16.036" x="-159.04" y="429.759" rx="2" ry="2" transform="rotate(30)"/>
        <path d="M-369.55 313.32v-3.496s-1.577-.743-1.53-2.916c.047-2.173.098-11.742.098-11.742l14.235-.272.095 11.15-2.788 3.543s-.52.708-.52.898v2.835z"/>
      </g>
      <path fill="#4fbf88" d="M-370.856 313.32h11.426v3.541h-11.426z"/>
      <path fill="#0b6e30" d="M-372.547 316.861h13.116v7.267h-13.116z"/>
      <circle r="1.136" cy="320.119" cx="-370.436" fill="#4fbf88"/>
    </g>
    <g transform="matrix(.5974 0 0 .5974 49.103 21.103)" fill="#724e47">
      <path d="M-327.186 313.442v-3.496s1.577-.742 1.53-2.916c-.048-2.173-.098-11.742-.098-11.742l-14.236-.272-.094 11.15 2.788 3.543s.52.708.52.898v2.835z"/>
      <rect width="3.341" height="16.036" x="-340.034" y="283.169" rx="1.786" ry="2"/>
      <rect width="3.341" height="16.036" x="-336.394" y="283.169" rx="1.786" ry="2"/>
      <rect width="3.341" height="16.036" x="-329.114" y="-299.205" rx="1.786" ry="2" transform="scale(1 -1)"/>
      <rect width="3.341" height="16.036" x="-332.754" y="-299.205" rx="1.786" ry="2" transform="scale(1 -1)"/>
      <rect width="3.742" height="16.036" x="-454.804" y="37.036" rx="2" ry="2" transform="rotate(-35.641)"/>
    </g>
    <g transform="matrix(-.5974 0 0 .5974 -356.135 21.26)">
      <path fill="#4fbf88" d="M-352.462 313.178h11.426v3.541h-11.426z"/>
      <path fill="#0b6e30" d="M-354.152 316.719h13.116v7.267h-13.116z"/>
      <circle cx="-352.041" cy="319.977" r="1.136" fill="#4fbf88"/>
    </g>
  </g>
</svg>
