<svg xmlns="http://www.w3.org/2000/svg" width="1000" height="1000" viewBox="0 0 1000 1000">
  <defs>
    <style>
      .cls-1 {
        fill-rule: evenodd;
      }
    </style>
  </defs>
  <path id="Cognition_-_icon_only" data-name="Cognition - icon only" class="cls-1" d="M414.933,429.019a42.467,42.467,0,1,1-42.467-42.482A42.475,42.475,0,0,1,414.933,429.019Zm392.2-29.194,4.159-41.61h0C811.291,201.8,661.888,75,505.529,75H482.88a292.817,292.817,0,0,0-82.616,11.964,12.956,12.956,0,0,0-5.546,21.631c63.111,62.179,101.2,151.35,104.636,251.007h0.24v63.542a26.728,26.728,0,0,0,3.337,12.933L576.81,569.708h0l1.132,1.46a30.939,30.939,0,0,1,6.772,21.908c-1.249,16.248-15.239,28.574-31.528,28.574H499.594v94.79h0c28.377-.091,56.244-2.487,80.036-14.375,14.99-7.49,32.61,3.591,32.61,20.354h0a22.654,22.654,0,0,1-12.553,20.288c-29.848,14.839-64.522,18.924-100.093,19.05h0v44.2A62.033,62.033,0,0,1,437.572,868H382.383c-15.49,0-20.474,20.987-6.573,27.822a280.423,280.423,0,0,0,124.057,28.821c155.712,0,261.95-129.056,283.113-283.215l0.677-6.772h9.515c23.357,0,24.429-31.808,27.745-50.5L841.868,449.5c3.584-24.805-14.31-45.4-34.736-49.672h0ZM627.275,471.5a42.483,42.483,0,1,1,42.467-42.483A42.475,42.475,0,0,1,627.275,471.5Z"/>
</svg>
