<svg xmlns="http://www.w3.org/2000/svg" width="1000" height="1000" viewBox="0 0 1000 1000">
  <defs>
    <style>
      .cls-1 {
        fill-rule: evenodd;
      }
    </style>
  </defs>
  <path id="vision" class="cls-1" d="M513.081,250.129c-4.017,0-8.041-.129-12.081-0.129s-8.064.129-12.081,0.129C301.335,250.129,111.491,382.343,50,500c61.491,117.656,249.335,249.871,436.919,249.871,4.017,0,8.04.129,12.081,0.129s8.064-.129,12.081-0.129C698.665,749.871,888.51,617.656,950,500,888.51,382.343,700.665,250.129,513.081,250.129ZM498.62,680a180,180,0,1,1,180-180A180,180,0,0,1,498.62,680Zm-378.2-179.963c29.782-41.595,77.4-84.081,132.916-117.816a545.263,545.263,0,0,1,55.918-29.695,239.848,239.848,0,0,0,.78,295.942,537.117,537.117,0,0,1-57.553-30.6C197.469,584.226,150.153,541.734,120.417,500.034Zm626.25,117.747a544.106,544.106,0,0,1-60.236,31.655,239.784,239.784,0,0,0-.761-299.823,536.07,536.07,0,0,1,61.852,32.517c55.01,33.642,102.326,76.136,132.061,117.836C849.8,541.564,802.185,584.045,746.667,617.781ZM597.931,453.153a48.227,48.227,0,1,1-62.472-56.6A109.731,109.731,0,1,0,597.931,453.153Z"/>
</svg>
