<svg xmlns="http://www.w3.org/2000/svg" width="1000" height="1000" viewBox="0 0 1000 1000">
  <defs>
    <style>
      .cls-1 {
        fill-rule: evenodd;
      }
    </style>
  </defs>
  <path id="Speech" class="cls-1" d="M659.385,293c-47.122,0-91.129,22.54-128.495,50.084a58.832,58.832,0,0,1-61.78,0C431.744,315.54,387.737,293,340.615,293,217.03,293,123.361,391,50,499.081c61.491,117.657,250.335,243.79,437.919,243.79,4.017,0,8.041.129,12.081,0.129s8.064-.129,12.081-0.129c187.584,0,376.428-126.133,437.919-243.79C876.639,391,782.97,293,659.385,293ZM501,568c-165.685,0-275-41.789-275-62.5S335.315,443,501,443s275,41.789,275,62.5S666.686,568,501,568Z"/>
</svg>
