<svg xmlns="http://www.w3.org/2000/svg" width="1000" height="1000" viewBox="0 0 1000 1000">
  <defs>
    <style>
      .cls-1 {
        fill-rule: evenodd;
      }
    </style>
  </defs>
  <path id="Dexterrity" class="cls-1" d="M843.689,659.652l-71.835-71.835a225.824,225.824,0,0,0-61.5-205.919l0,0h0l-63.942-63.922-79.931-79.906a45.209,45.209,0,1,0-63.925,63.945l79.93,79.906-0.174.174a11.233,11.233,0,0,1-15.771,15.778l-0.034.034-0.4-.4c-0.191-.168-0.385-0.332-0.568-0.514s-0.346-.375-0.512-0.566l-46.475-46.463L334.713,166.175a33.906,33.906,0,0,0-47.942,47.958L470.608,397.915l0,0.006a11.241,11.241,0,0,1-15.895,15.9l-0.079.079L238.818,198.156a33.906,33.906,0,1,0-47.944,47.957l215.81,215.746-0.048.047c0.018,0.018.038,0.033,0.055,0.05a11.241,11.241,0,1,1-15.9,15.9c-0.017-.017-0.03-0.036-0.048-0.053l-0.045.045L206.865,294.064a33.905,33.905,0,1,0-47.942,47.957L342.759,525.8l31.974,31.965-0.163.163a10.909,10.909,0,0,1,.921.82,11.241,11.241,0,1,1-15.9,15.9,11.36,11.36,0,0,1-.82-0.918l-0.053.054L238.858,453.891a33.907,33.907,0,0,0-47.945,47.959L310.807,621.708l0.014-.011-0.012.013,79.926,79.9,0,0A225.813,225.813,0,0,0,594.07,763.586l72.843,72.843a25,25,0,0,0,35.355,0L843.156,695.54l-0.013-.013c0.183-.172.368-0.341,0.546-0.52A25,25,0,0,0,843.689,659.652Z"/>
</svg>
