<svg xmlns="http://www.w3.org/2000/svg" viewBox="0 0 177.271 87.313" height="330" width="670">
  <defs>
    <clipPath id="b" clipPathUnits="userSpaceOnUse">
      <circle transform="rotate(-1.112)" r="27.175" cy="713.797" cx="359.366" fill="red" stroke-width="7.508" stroke-linejoin="round"/>
    </clipPath>
    <clipPath id="a" clipPathUnits="userSpaceOnUse">
      <path fill="#fff" stroke-width=".794" stroke-linejoin="round" d="M4.536 364.469h208.076v90.714H4.536z"/>
    </clipPath>
  </defs>
  <g transform="matrix(.38913 0 0 .38913 60.542 5.99)">
    <rect ry="2.646" rx="2.646" y="179.334" x="296.044" height="33.409" width="117.331" transform="translate(-202.117 -175.914)" fill="#8f8f8f"/>
    <rect ry="2.646" rx="2.646" y="179.334" x="298.783" height="27.395" width="111.852" transform="translate(-202.117 -175.914)"/>
    <g fill="#fff" transform="rotate(15)">
      <rect ry="2.646" rx="2.646" y="-21.014" x="104.53" height="10.253" width="7.276"/>
      <rect ry="2.646" rx="2.646" y="-24.899" x="115.578" height="10.253" width="7.276"/>
      <rect ry="2.646" rx="2.646" y="-28.129" x="124.535" height="10.253" width="7.276"/>
      <rect ry="2.646" rx="2.646" y="-28.648" x="134.219" height="10.253" width="7.276"/>
    </g>
    <g transform="scale(-1 1) rotate(15 -141.392 -1098.826)" fill="#fff">
      <rect ry="2.646" rx="2.646" y="-16.105" x="89.823" height="10.253" width="7.276"/>
      <rect ry="2.646" rx="2.646" y="-19.99" x="100.871" height="10.253" width="7.276"/>
      <rect ry="2.646" rx="2.646" y="-23.22" x="109.829" height="10.253" width="7.276"/>
      <rect ry="2.646" rx="2.646" y="-23.739" x="119.512" height="10.253" width="7.276"/>
    </g>
    <g fill="#fff">
      <g transform="translate(0 -.156)">
        <circle cx="105.204" cy="21.412" r=".802"/>
        <circle cx="105.204" cy="23.572" r=".802"/>
        <circle cx="105.204" cy="25.733" r=".802"/>
        <circle cx="105.204" cy="27.893" r=".802"/>
      </g>
      <g transform="translate(0 -.156)">
        <circle cx="107.409" cy="21.378" r=".802"/>
        <circle cx="107.409" cy="23.539" r=".802"/>
        <circle cx="107.409" cy="25.699" r=".802"/>
        <circle cx="107.409" cy="27.86" r=".802"/>
      </g>
    </g>
    <g fill="#fff">
      <g transform="translate(7.842 -.156)">
        <circle cx="105.204" cy="21.412" r=".802"/>
        <circle cx="105.204" cy="23.572" r=".802"/>
        <circle cx="105.204" cy="25.733" r=".802"/>
        <circle cx="105.204" cy="27.893" r=".802"/>
      </g>
      <g transform="translate(7.842 -.156)">
        <circle cx="107.409" cy="21.378" r=".802"/>
        <circle cx="107.409" cy="23.539" r=".802"/>
        <circle cx="107.409" cy="25.699" r=".802"/>
        <circle cx="107.409" cy="27.86" r=".802"/>
      </g>
    </g>
    <g fill="#fff">
      <g transform="translate(31.088 -.156)">
        <circle cx="105.204" cy="21.412" r=".802"/>
        <circle cx="105.204" cy="23.572" r=".802"/>
        <circle cx="105.204" cy="25.733" r=".802"/>
        <circle cx="105.204" cy="27.893" r=".802"/>
      </g>
      <g transform="translate(31.088 -.156)">
        <circle cx="107.409" cy="21.378" r=".802"/>
        <circle cx="107.409" cy="23.539" r=".802"/>
        <circle cx="107.409" cy="25.699" r=".802"/>
        <circle cx="107.409" cy="27.86" r=".802"/>
      </g>
    </g>
    <g fill="#fff">
      <g transform="translate(38.86 -.156)">
        <circle cx="105.204" cy="21.412" r=".802"/>
        <circle cx="105.204" cy="23.572" r=".802"/>
        <circle cx="105.204" cy="25.733" r=".802"/>
        <circle cx="105.204" cy="27.893" r=".802"/>
      </g>
      <g transform="translate(38.86 -.156)">
        <circle cx="107.409" cy="21.378" r=".802"/>
        <circle cx="107.409" cy="23.539" r=".802"/>
        <circle cx="107.409" cy="25.699" r=".802"/>
        <circle cx="107.409" cy="27.86" r=".802"/>
      </g>
    </g>
    <g fill="#fff">
      <g transform="translate(46.632 -.156)">
        <circle cx="105.204" cy="21.412" r=".802"/>
        <circle cx="105.204" cy="23.572" r=".802"/>
        <circle cx="105.204" cy="25.733" r=".802"/>
        <circle cx="105.204" cy="27.893" r=".802"/>
      </g>
      <g transform="translate(46.632 -.156)">
        <circle cx="107.409" cy="21.378" r=".802"/>
        <circle cx="107.409" cy="23.539" r=".802"/>
        <circle cx="107.409" cy="25.699" r=".802"/>
        <circle cx="107.409" cy="27.86" r=".802"/>
      </g>
    </g>
    <g fill="#fff">
      <g transform="translate(54.404 -.156)">
        <circle cx="105.204" cy="21.412" r=".802"/>
        <circle cx="105.204" cy="23.572" r=".802"/>
        <circle cx="105.204" cy="25.733" r=".802"/>
        <circle cx="105.204" cy="27.893" r=".802"/>
      </g>
      <g transform="translate(54.404 -.156)">
        <circle cx="107.409" cy="21.378" r=".802"/>
        <circle cx="107.409" cy="23.539" r=".802"/>
        <circle cx="107.409" cy="25.699" r=".802"/>
        <circle cx="107.409" cy="27.86" r=".802"/>
      </g>
    </g>
    <g fill="#fff">
      <g transform="translate(62.176 -.156)">
        <circle cx="105.204" cy="21.412" r=".802"/>
        <circle cx="105.204" cy="23.572" r=".802"/>
        <circle cx="105.204" cy="25.733" r=".802"/>
        <circle cx="105.204" cy="27.893" r=".802"/>
      </g>
      <g transform="translate(62.176 -.156)">
        <circle cx="107.409" cy="21.378" r=".802"/>
        <circle cx="107.409" cy="23.539" r=".802"/>
        <circle cx="107.409" cy="25.699" r=".802"/>
        <circle cx="107.409" cy="27.86" r=".802"/>
      </g>
    </g>
    <g fill="#fff">
      <g transform="translate(84.784 -.156)">
        <circle cx="105.204" cy="21.412" r=".802"/>
        <circle cx="105.204" cy="23.572" r=".802"/>
        <circle cx="105.204" cy="25.733" r=".802"/>
        <circle cx="105.204" cy="27.893" r=".802"/>
      </g>
      <g transform="translate(84.784 -.156)">
        <circle cx="107.409" cy="21.378" r=".802"/>
        <circle cx="107.409" cy="23.539" r=".802"/>
        <circle cx="107.409" cy="25.699" r=".802"/>
        <circle cx="107.409" cy="27.86" r=".802"/>
      </g>
    </g>
    <g fill="#fff">
      <g transform="translate(92.627 -.156)">
        <circle cx="105.204" cy="21.412" r=".802"/>
        <circle cx="105.204" cy="23.572" r=".802"/>
        <circle cx="105.204" cy="25.733" r=".802"/>
        <circle cx="105.204" cy="27.893" r=".802"/>
      </g>
      <g transform="translate(92.627 -.156)">
        <circle cx="107.409" cy="21.378" r=".802"/>
        <circle cx="107.409" cy="23.539" r=".802"/>
        <circle cx="107.409" cy="25.699" r=".802"/>
        <circle cx="107.409" cy="27.86" r=".802"/>
      </g>
    </g>
  </g>
  <path d="M127.967 21.958c0 .549-.412.995-.961.995-.55 0-.961-.446-.961-.995v-7.722c0-.55.412-.995.96-.995.55 0 .962.446.962.995z" fill="#f4cfb2"/>
  <path d="M133.458 20.345h-5.834c-.893 0-1.58.72-1.58 1.613v4.633l2.129 3.157h5.182c.858 0 1.579-.72 1.579-1.579v-6.211c0-.893-.584-1.613-1.476-1.613z" fill="#f4cfb2"/>
  <path d="M128.447 22.678c-.926 0-1.75.378-2.402.927l-2.334-3.466c-.343-.48-.995-.618-1.475-.275-.515.309-.618.995-.31 1.476l5.423 7.962c.206.274.515.412.824.446h.274c1.922 0 3.535-1.579 3.535-3.535a3.53 3.53 0 00-3.535-3.535zM127.692 14.648v-.618c0-.24-.171-.446-.412-.446h-.549a.454.454 0 00-.446.446v.618z" fill="#f4cfb2"/>
  <path d="M130.3 21.958c0 .549-.446.995-.995.995-.515 0-.96-.446-.96-.995v-7.722c0-.55.445-.995.96-.995.55 0 .996.446.996.995z" fill="#f4cfb2"/>
  <path d="M130.026 14.648v-.618a.454.454 0 00-.446-.446h-.55c-.24 0-.411.206-.411.446v.618zM132.6 21.958c0 .549-.446.995-.961.995a.996.996 0 01-.995-.995v-7.722c0-.55.446-.995.995-.995.515 0 .96.446.96.995z" fill="#f4cfb2"/>
  <path d="M132.325 14.648v-.618a.454.454 0 00-.446-.446h-.515a.454.454 0 00-.446.446v.618zM134.934 21.958c0 .549-.447.995-.996.995-.514 0-.96-.446-.96-.995v-7.722c0-.55.446-.995.96-.995.55 0 .996.446.996.995z" fill="#f4cfb2"/>
  <path d="M134.625 14.648v-.618c0-.24-.172-.446-.412-.446h-.55a.454.454 0 00-.445.446v.618zM128.001 33.008c1.236.206 2.06.755 3.363.755.721 0 1.922-.034 2.643-.103v-4.358h-6.006z" fill="#f4cfb2"/>
  <path d="M134.796 34.381h-7.035v-2.3h7.035z" fill="#d6d6d6"/>
  <path d="M135.62 82.589h-7.86V34.107h7.86z" fill="#50be87"/>
  <path d="M133.012 36.166c0 .48.412.892.892.892.48 0 .858-.412.858-.892a.85.85 0 00-.858-.858c-.48 0-.892.377-.892.858z"/>
  <path d="M112.05 21.958c0 .549.412.995.961.995.55 0 .961-.446.961-.995v-7.722c0-.55-.412-.995-.96-.995-.55 0-.962.446-.962.995z" fill="#f4cfb2"/>
  <path d="M106.56 20.345h5.833c.893 0 1.579.72 1.579 1.613v4.633l-2.128 3.157h-5.182c-.858 0-1.579-.72-1.579-1.579v-6.211c0-.893.584-1.613 1.476-1.613z" fill="#f4cfb2"/>
  <path d="M111.57 22.678c.926 0 1.75.378 2.402.927l2.334-3.466c.343-.48.995-.618 1.475-.275.515.309.618.995.31 1.476l-5.423 7.962a1.172 1.172 0 01-.824.446h-.274c-1.922 0-3.535-1.579-3.535-3.535a3.53 3.53 0 013.535-3.535zM112.325 14.648v-.618c0-.24.171-.446.412-.446h.549c.24 0 .446.206.446.446v.618z" fill="#f4cfb2"/>
  <path d="M109.716 21.958c0 .549.447.995.996.995.514 0 .96-.446.96-.995v-7.722c0-.55-.446-.995-.96-.995a.996.996 0 00-.996.995z" fill="#f4cfb2"/>
  <path d="M109.991 14.648v-.618c0-.24.206-.446.446-.446h.55c.24 0 .411.206.411.446v.618zM107.417 21.958c0 .549.446.995.961.995.55 0 .995-.446.995-.995v-7.722a.996.996 0 00-.995-.995c-.515 0-.96.446-.96.995z" fill="#f4cfb2"/>
  <path d="M107.692 14.648v-.618c0-.24.206-.446.446-.446h.515c.24 0 .446.206.446.446v.618zM105.083 21.958c0 .549.447.995.996.995.514 0 .96-.446.96-.995v-7.722c0-.55-.446-.995-.96-.995a.996.996 0 00-.996.995z" fill="#f4cfb2"/>
  <path d="M105.392 14.648v-.618c0-.24.172-.446.412-.446h.55c.24 0 .445.206.445.446v.618zM112.016 33.008c-1.236.206-2.06.755-3.363.755-.721 0-1.922-.034-2.643-.103v-4.358h6.006z" fill="#f4cfb2"/>
  <path d="M105.22 34.381h7.036v-2.3h-7.035z" fill="#d6d6d6"/>
  <path d="M104.397 67.154h7.859V34.107h-7.859z" fill="#50be87"/>
  <path d="M107.005 36.166c0 .48-.412.892-.892.892-.48 0-.858-.412-.858-.892a.85.85 0 01.858-.858c.48 0 .892.377.892.858z"/>
  <g>
    <path d="M149.125 62.733a1.754 1.754 0 01-2.402.652l-5.629-3.398a1.794 1.794 0 01-.652-2.437l2.368-4.118a1.794 1.794 0 012.437-.652l5.628 3.398a1.794 1.794 0 01.652 2.436z" fill="#f4cfb2"/>
    <path d="M142.467 52.471l-2.3-.515v5.32c0 .96.79 1.716 1.75 1.716h3.193c.205-.55.308-1.167.308-1.785 0-2.093-1.2-3.912-2.951-4.736z" fill="#f4cfb2"/>
    <path d="M142.467 58.683c0 .652-.515 1.167-1.133 1.167v.137c-.652 0-1.166-.652-1.166-1.304v-9.575c0-.618.514-1.133 1.166-1.133.618 0 1.133.515 1.133 1.133z" fill="#f4cfb2"/>
    <path d="M142.158 49.691v-.72a.505.505 0 00-.515-.515h-.617c-.31 0-.515.206-.515.515v.72z" fill="#f4cfb2"/>
    <path d="M165.873 57.825c0 .72-.584 1.338-1.305 1.338h-20.763a1.34 1.34 0 01-1.338-1.338v-15.58c0-.756.583-1.34 1.338-1.34h20.763c.721 0 1.305.584 1.305 1.34z"/>
    <path d="M165.29 57.207h-22.24V42.45h22.24z" fill="#fff"/>
    <path fill="#ff7900" d="M143.462 42.862h21.467V56.77h-21.467z"/>
    <path d="M147.443 68.224h-6.314v-8.752h6.314z" fill="#f4cfb2"/>
    <path d="M147.683 66.714h-6.795v-2.231h6.795z" fill="#ff7900"/>
    <path d="M147.924 87.346h-7.276V66.473h7.276z" fill="#a885d8"/>
    <path d="M146.928 67.983c0 .412-.343.721-.72.721a.725.725 0 01-.72-.72c0-.378.342-.687.72-.687.377 0 .72.309.72.686z" fill="#fff"/>
    <path d="M160.004 58.573c.069.583-.309 1.132-.892 1.235a1.097 1.097 0 01-1.27-.892l-1.373-8.51a1.115 1.115 0 01.892-1.27 1.106 1.106 0 011.236.926zM162.578 58.127a1.097 1.097 0 01-.892 1.27 1.106 1.106 0 01-1.236-.927l-.274-1.647c-.103-.584.308-1.133.892-1.236.583-.103 1.132.31 1.235.893zM165.186 57.715c.103.583-.309 1.133-.892 1.235a1.097 1.097 0 01-1.27-.892l-.274-1.647c-.07-.618.308-1.167.926-1.27a1.106 1.106 0 011.236.927zM167.76 57.303c.103.584-.309 1.133-.892 1.236-.584.103-1.133-.31-1.236-.893l-.274-1.681c-.103-.584.309-1.133.892-1.236.583-.103 1.167.31 1.236.893z" fill="#f4cfb2"/>
    <path d="M165.735 55.793l-6.417 1.064c-.961.137-1.613 1.064-1.476 2.025l.858 5.113 2.883 3.055 5.834-.927a1.816 1.816 0 001.476-2.059l-1.133-6.795c-.137-.961-1.064-1.613-2.025-1.476z" fill="#f4cfb2"/>
    <path d="M160.622 59.26a4.042 4.042 0 00-2.437 1.44l-3.226-3.397a1.224 1.224 0 00-1.682-.034c-.48.446-.48 1.201-.034 1.681l7.379 7.757c.24.274.617.411.995.343h.103c.034 0 .103-.035.172-.035 2.127-.343 3.603-2.368 3.26-4.495-.378-2.162-2.368-3.604-4.53-3.26zM158.391 50.542l-.137-.652c-.035-.274-.275-.446-.55-.412l-.583.103c-.274.035-.446.275-.412.55l.103.686z" fill="#f4cfb2"/>
    <path d="M153.243 58.95l.584.618 1.063-1.064-.583-.617c-.24-.24-.618-.24-.892 0l-.48.48c.034.206.137.412.308.583zM167.863 72.472h-6.349v-8.751h6.35z" fill="#f4cfb2"/>
    <path d="M168.24 71.443h-6.76v-2.231h6.76z" fill="#ff7900"/>
    <path d="M168.48 87.346h-7.24V71.202h7.24z" fill="#a885d8"/>
    <path d="M163.367 72.712c0 .412-.309.721-.72.721-.378 0-.687-.309-.687-.72 0-.378.31-.687.687-.687.411 0 .72.309.72.686z" fill="#fff"/>
    <path d="M152.328 47.721v4.189l3.683-2.126z" stroke="#000" stroke-width=".10296530999999999"/>
  </g>
  <g>
    <path d="M49.125 67.88h68.29v5.05h-68.29zm3.084-29.513h62.093a3.106 3.106 0 013.113 3.113v28.338a3.106 3.106 0 01-3.113 3.113H52.21a3.106 3.106 0 01-3.113-3.113V41.48a3.106 3.106 0 013.113-3.113z" fill="#020004"/>
    <path fill="#fff" d="M51.535 40.776h63.441v29.745H51.535z"/>
    <path d="M193.354 307.71H17.859v-12.978h175.495zm-7.925 75.847H25.86c-4.432 0-8-3.568-8-8v-72.825c0-4.432 3.568-8 8-8h159.57c4.432 0 8 3.568 8 8v72.825c0 4.432-3.568 8-8 8z" clip-path="url(#a)" transform="matrix(.38913 0 0 .38913 42.146 -68.925)" fill="#8f8f8f"/>
    <path d="M75.828 80.181h14.856v6.03H75.828z"/>
    <path fill="#8f8f8f" d="M73.585 86.064h19.341v1.25H73.585z"/>
    <path d="M80.812 75.096H85.7v2.808h-4.888z"/>
    <path fill="#ccc" d="M55.013 42.63h57.243v26.838H55.013z"/>
    <path fill="#e6e6e6" d="M55.013 42.63h6.903v1.806h-6.903zM55.013 44.437h57.243v25.032H55.013z"/>
    <path fill="#fff" d="M55.925 45.18h55.419v1.876h-55.42zM55.925 47.614h55.419V68.54h-55.42z"/>
    <path fill="#50bf88" d="M56.954 48.85H74.72v8.882H56.954z"/>
    <path fill="#115ab9" d="M56.954 58.556H74.72v8.882H56.954z"/>
    <path d="M75.543 48.85h27.984v.647H75.543zM75.543 49.909h32.249v.647h-32.25zM75.543 50.968h15.482v.647H75.543zM75.543 52.027h13.055v.647H75.543zM75.543 54.967h27.984v.647H75.543zM75.543 56.026h32.249v.647h-32.25zM75.543 57.085h15.482v.647H75.543zM75.543 58.761H106.1v.648H75.543zM75.543 59.82h15.482v.648H75.543z"/>
  </g>
  <g>
    <path d="M116.115 77.512s1.435 1.654 7.406-5.068c.479-.54.447-1.485-.143-2.01l-3.669-3.259c-.59-.524-2.768-.48-3.077.209l-2.456 5.486c-.322.72 1.015 3.822 1.94 4.642z" fill="#714e46"/>
    <path d="M119.558 70.13c.488.432 1.214.39 1.625-.073a1.157 1.157 0 00-.098-1.647l-3.746-3.328c-.462-.41-1.188-.367-1.621.12a1.143 1.143 0 00.094 1.6z" fill="#714e46"/>
    <path d="M135.296 57.519l.957-1.078-1.129-1.003-.957 1.078z" fill="#d6d6d6"/>
    <path fill="#714e46" d="M118.415 76.944l4.21-4.75 2.722 2.412-4.211 4.75z"/>
    <path d="M123.508 79.315a.47.47 0 01.04.679.49.49 0 01-.678.04c-.18-.16-.2-.5-.04-.679a.49.49 0 01.678-.04zM124.508 80.204a.47.47 0 01.04.678.49.49 0 01-.678.04c-.18-.159-.174-.475-.014-.655.182-.205.473-.222.652-.063zM125.535 81.116c.18.16.197.45.014.655-.16.18-.473.223-.652.063a.49.49 0 01-.04-.678.47.47 0 01.678-.04z" fill="#ff8ad4"/>
    <path d="M107.845 53.692c3.258 3.014 3.526 8.046.6 11.3-3.01 3.346-8.041 3.614-11.3.6-3.342-2.921-3.609-7.953-.6-11.3 2.926-3.254 7.958-3.52 11.3-.6z" fill="#fff"/>
    <path d="M95.528 53.46c-3.428 3.812-3.114 9.727.698 13.154 3.811 3.427 9.726 3.113 13.242-.703 3.427-3.811 3.113-9.726-.699-13.153-3.9-3.423-9.814-3.109-13.241.703zm12.27 11.035c-2.679 2.886-7.18 3.125-10.063.534a7.15 7.15 0 01-.539-10.152c2.592-2.882 7.094-3.12 10.064-.534a7.15 7.15 0 01.539 10.152z" fill="#8f8f8f"/>
    <path d="M121.705 74.645l-2.252 2.598-12.178-10.95 2.257-2.51z" fill="#8f8f8f"/>
    <path d="M123.21 74.654l-3.677 4.09-10.04-9.028 3.677-4.09z"/>
    <g clip-path="url(#b)" transform="matrix(.26515 .00515 -.00515 .26515 7.173 -129.65)">
      <path d="M390.367 698.057l-46.326.772-.078-5.333 46.326-.772zM384.767 708.361l-46.326.772-.078-5.333 46.326-.771z"/>
      <path d="M384.961 708.407l-46.325.772-.078-5.333 46.326-.772zM390.688 718.54l-48.243.81-.077-5.334 48.243-.808z"/>
    </g>
    <g fill="#714e46">
      <path d="M115.03 73.572c.423-.39.434-1.097.044-1.52a1.084 1.084 0 00-1.52-.042l-1.14 1.086c-.44.42-.463 1.08-.043 1.52.39.422 1.08.462 1.52.042zM119.234 76.48c.44-.42.434-1.097.043-1.52a1.057 1.057 0 00-1.52-.043l-1.805 1.693c-.44.42-.463 1.08-.043 1.52.39.423 1.08.463 1.52.043zM113.352 71.712c.422-.39.433-1.097.043-1.52a1.084 1.084 0 00-1.52-.043l-1.14 1.086c-.44.42-.463 1.08-.042 1.52.39.423 1.08.463 1.52.043zM117.373 74.812c.44-.42.433-1.096.042-1.519a1.057 1.057 0 00-1.52-.043l-1.805 1.693c-.44.42-.463 1.08-.043 1.52.39.422 1.08.463 1.52.043z"/>
    </g>
    <path d="M117.003 66.83a1.084 1.084 0 00-.174-1.51 1.057 1.057 0 00-1.51.174l-1.546 1.934a1.057 1.057 0 00.175 1.51 1.071 1.071 0 001.51-.175z" fill="#714e46"/>
  </g>
  <g fill="#ffb4e6">
    <path d="M126.65 75.056l-4.931 5.717-1.716-1.48 4.932-5.716z"/>
    <path d="M127.537 74.72a1.89 1.89 0 00-1.472.647l-3.99 4.626a1.882 1.882 0 00.196 2.662l5.438 4.691h15.132l-14.114-12.175a1.873 1.873 0 00-1.19-.452z"/>
  </g>
  <path d="M21.762 38.007c0 .789 1.58.96 1.58 2.196 0 0-2.678 3.329-11.635 3.329a1.413 1.413 0 01-1.407-1.407V36.6c0-.79.618-1.408 1.407-1.408h6.83c.789 0 1.406.618 1.406 1.408z" fill="#f4cfb2"/>
  <path d="M12.565 35.261l-2.3-.515v5.32c0 .96.79 1.75 1.75 1.75h3.227c.206-.55.309-1.167.309-1.785 0-2.093-1.236-3.912-2.986-4.77z" fill="#f4cfb2"/>
  <path d="M22.174 38.865c-.034 2.814-4.118 2.814-4.839 2.814-.72 0-4.77-.103-4.804-2.814V24.279c0-1.098.926-2.025 2.059-2.025h5.56c1.098 0 2.024.927 2.024 2.06z"/>
  <path d="M21.454 37.766h-8.237l.034-13.624 8.203.034z" fill="#ff7900"/>
  <path d="M18.056 39.242c0 .378-.309.72-.72.72a.725.725 0 01-.721-.72c0-.412.308-.72.72-.72s.721.308.721.72z" fill="#d6d6d6"/>
  <path d="M11.432 35.879c-.652 0-1.166-.515-1.166-1.133 0-.617.514-1.132 1.166-1.132h3.226c.652 0 1.167.48 1.167 1.132 0 .618-.515 1.133-1.167 1.133zM21.042 40.58c-.618 0-1.099-.48-1.099-1.063 0-.584.481-1.064 1.099-1.064h1.544c.618 0 1.098.48 1.098 1.064 0 .583-.48 1.064-1.098 1.064zM21.042 38.213c-.618 0-1.099-.48-1.099-1.099 0-.583.481-1.064 1.099-1.064h1.544c.618 0 1.098.48 1.098 1.064 0 .618-.48 1.099-1.098 1.099zM21.042 35.81c-.618 0-1.099-.48-1.099-1.064 0-.617.481-1.098 1.099-1.098h1.544c.618 0 1.098.48 1.098 1.098 0 .584-.48 1.064-1.098 1.064z" fill="#f4cfb2"/>
  <path d="M11.053 20.208c0-2.405-1.978-4.33-4.383-4.33a4.311 4.311 0 00-4.329 4.33c0 2.405 1.924 4.382 4.33 4.382.32 0 .587-.053.908-.107.801.588 2.084 1.604 2.137 1.55 0-.053-.427-1.229-.694-2.138 1.229-.748 2.03-2.137 2.03-3.687zm-6.734-1.604l4.703-.053c.213 0 .374.16.374.374s-.16.374-.374.374H4.319c-.16 0-.321-.16-.321-.374s.16-.32.32-.32zm0 1.23l4.703-.054c.213 0 .374.16.374.374s-.16.374-.374.374H4.319c-.16 0-.321-.16-.321-.374s.16-.32.32-.32zm4.703 1.924H4.319c-.16 0-.321-.16-.321-.375 0-.213.16-.32.32-.32l4.704-.054c.213 0 .374.16.374.374s-.16.375-.374.375z"/>
  <path d="M21.454 34.026H20.8c-.24 0-.446.206-.446.48v.55c0 .24.206.445.446.445h.653zM14.11 35.536h.72c.275 0 .515-.24.515-.515v-.618a.528.528 0 00-.515-.515h-.72zM21.454 36.394H20.8c-.24 0-.446.206-.446.48v.55c0 .24.206.445.446.445h.653zM21.454 38.762H20.8c-.24 0-.446.206-.446.48v.55c0 .274.206.48.446.48h.653zM11.776 46.45c1.407.136 2.368.72 3.809.617a27.048 27.048 0 002.917-.31l-.274-4.838-6.693.412zM21.042 33.442c-.618 0-1.099-.48-1.099-1.098 0-.583.481-1.064 1.099-1.064h1.544c.618 0 1.098.48 1.098 1.064 0 .618-.48 1.098-1.098 1.098z" fill="#f4cfb2"/>
  <path d="M21.454 31.589H20.8c-.24 0-.446.206-.446.48v.55c0 .274.206.48.446.48h.653z" fill="#f4cfb2"/>
  <path d="M18.845 46.724h-7.55v-2.265h7.55z" fill="#492191"/>
  <path d="M20.115 87.346V48.324c0-1.004-.858-1.84-1.887-1.84h-6.11c-1.063 0-1.887.836-1.887 1.84v39.022z" fill="#492191"/>
  <g transform="matrix(.10296 0 0 .10296 164.16 -53.684)">
    <rect width="90.115" height="125.063" x="-1318.216" y="666.833" rx="10" ry="10"/>
    <circle cx="-1273.158" cy="733.364" r="32.701" fill="#fdb201"/>
    <g transform="translate(1.06 2)" fill="#fdb201">
      <circle r="8.987" cy="682.874" cx="-1299.307"/>
      <circle r="8.987" cy="682.874" cx="-1249.132"/>
    </g>
    <path style="line-height:normal;font-variant-ligatures:normal;font-variant-position:normal;font-variant-caps:normal;font-variant-numeric:normal;font-variant-alternates:normal;font-feature-settings:normal;text-indent:0;text-align:start;text-decoration-line:none;text-decoration-style:solid;text-decoration-color:#000;text-transform:none;text-orientation:mixed;white-space:normal;shape-padding:0;isolation:auto;mix-blend-mode:normal;solid-color:#000;solid-opacity:1" d="M-1273.516 617.549c-1.738-.167-3.663-.147-5.802.052l.462 4.979c3.773-.351 6.438 0 8.176.687 1.738.688 2.617 1.6 3.23 2.922 1.228 2.644.828 7.505-.72 13.006s-4.04 11.553-5.998 16.893c-.98 2.67-1.827 5.16-2.354 7.41-.527 2.249-.845 4.25-.207 6.271l4.768-1.506c-.11-.35-.13-1.749.308-3.625.44-1.875 1.228-4.232 2.18-6.828 1.904-5.191 4.45-11.34 6.115-17.26 1.666-5.919 2.657-11.699.444-16.466-1.107-2.384-3.154-4.368-5.926-5.465-1.386-.548-2.938-.903-4.676-1.07z" color="#000" font-weight="400" font-family="sans-serif" overflow="visible"/>
  </g>
  <g>
    <path d="M34.995 28.705c0 .55-.412.995-.96.995-.55 0-.962-.446-.962-.995v-7.722c0-.549.412-.995.961-.995.55 0 .961.446.961.995z" fill="#c19372"/>
    <path d="M40.486 27.092h-5.834c-.892 0-1.579.721-1.579 1.613v4.633l2.128 3.158h5.182c.858 0 1.579-.721 1.579-1.579v-6.212c0-.892-.583-1.613-1.476-1.613z" fill="#c19372"/>
    <path d="M35.476 29.426c-.927 0-1.75.377-2.403.927l-2.333-3.467c-.344-.48-.996-.617-1.476-.274-.515.309-.618.995-.309 1.476l5.422 7.962c.206.274.515.411.824.446H35.476c1.922 0 3.535-1.579 3.535-3.535a3.53 3.53 0 00-3.535-3.535zM34.72 21.395v-.617c0-.24-.17-.447-.411-.447h-.55a.454.454 0 00-.445.447v.617z" fill="#c19372"/>
    <path d="M37.329 28.705c0 .55-.446.995-.995.995-.515 0-.961-.446-.961-.995v-7.722c0-.549.446-.995.96-.995.55 0 .996.446.996.995z" fill="#c19372"/>
    <path d="M37.054 21.395v-.617a.454.454 0 00-.446-.447h-.549c-.24 0-.412.206-.412.447v.617zM39.628 28.705c0 .55-.446.995-.96.995a.996.996 0 01-.996-.995v-7.722c0-.549.446-.995.995-.995.515 0 .961.446.961.995z" fill="#c19372"/>
    <path d="M39.354 21.395v-.617a.454.454 0 00-.446-.447h-.515a.454.454 0 00-.446.447v.617zM41.962 28.705c0 .55-.446.995-.995.995-.515 0-.961-.446-.961-.995v-7.722c0-.549.446-.995.96-.995.55 0 .996.446.996.995z" fill="#c19372"/>
    <path d="M41.653 21.395v-.617c0-.24-.171-.447-.412-.447h-.549a.454.454 0 00-.446.447v.617zM35.03 39.756c1.235.206 2.059.755 3.363.755.72 0 1.922-.034 2.642-.103V36.05H35.03z" fill="#c19372"/>
    <path d="M41.825 41.129h-7.036v-2.3h7.036z" fill="#595959"/>
    <path d="M42.648 87.346H34.79V40.854h7.86z" fill="#ff7900"/>
    <path d="M40.04 42.913c0 .48.412.893.892.893.48 0 .858-.412.858-.893a.85.85 0 00-.858-.858c-.48 0-.892.378-.892.858z" fill="#fff"/>
  </g>
  <path d="M166.596 36.652c0-2.406 1.978-4.33 4.383-4.33a4.311 4.311 0 014.329 4.33c0 2.405-1.924 4.382-4.33 4.382-.32 0-.587-.053-.908-.107-.802.588-2.084 1.603-2.138 1.55 0-.053.428-1.23.695-2.138-1.23-.748-2.03-2.138-2.03-3.687z"/>
  <g style="line-height:1.25" font-weight="400" font-size="40.762" font-family="HelveticaNeue LT 65 Medium" letter-spacing="0" word-spacing="0" stroke-width="2.548" fill="#fff">
    <path style="-inkscape-font-specification:'HelveticaNeue LT 65 Medium, '" d="M170.262 35.892q-.033-.13-.092-.24-.059-.109-.151-.189t-.218-.121q-.122-.046-.286-.046-.239 0-.415.096-.172.097-.281.26-.11.16-.164.365-.05.206-.05.42t.05.42q.055.205.164.37.109.159.28.255.177.097.416.097.177 0 .31-.06.135-.062.232-.167.096-.11.15-.252.055-.142.072-.306h.512q-.017.268-.117.49-.097.223-.265.387-.168.16-.394.248-.227.088-.5.088-.335 0-.604-.122-.264-.126-.449-.34-.185-.214-.285-.5-.097-.285-.097-.608 0-.319.097-.604.1-.286.285-.5.185-.214.449-.34.269-.125.604-.125.252 0 .475.07.222.068.39.202.172.13.277.32.105.188.13.432zM173.295 35.892q-.033-.13-.092-.24-.059-.109-.151-.189-.093-.08-.219-.121-.121-.046-.285-.046-.24 0-.415.096-.172.097-.282.26-.109.16-.163.365-.05.206-.05.42t.05.42q.054.205.163.37.11.159.282.255.176.097.415.097.176 0 .31-.06.135-.062.231-.167.097-.11.152-.252.054-.142.07-.306h.513q-.017.268-.118.49-.096.223-.264.387-.168.16-.394.248-.227.088-.5.088-.336 0-.604-.122-.265-.126-.45-.34-.184-.214-.285-.5-.096-.285-.096-.608 0-.319.096-.604.101-.286.286-.5.184-.214.449-.34.268-.125.604-.125.252 0 .474.07.223.068.39.202.173.13.278.32.105.188.13.432z"/>
  </g>
  <g transform="matrix(.59144 0 0 .59144 24.503 -115.343)" fill="#fff">
    <path d="M-17.376 241.395h3.541v3.742h-3.541z"/>
    <ellipse cx="-15.606" cy="239.925" rx="1.57" ry="1.47"/>
    <path style="line-height:normal;font-variant-ligatures:normal;font-variant-position:normal;font-variant-caps:normal;font-variant-numeric:normal;font-variant-alternates:normal;font-feature-settings:normal;text-indent:0;text-align:start;text-decoration-line:none;text-decoration-style:solid;text-decoration-color:#000;text-transform:none;text-orientation:mixed;white-space:normal;shape-padding:0;isolation:auto;mix-blend-mode:normal;solid-color:#000;solid-opacity:1" d="M-12.358 241.444v.795h5.68v-.795zM-12.358 242.967v.713h4.594v-.713zM-12.358 244.45v.712h4.594v-.712z" color="#000" font-weight="400" font-family="sans-serif" overflow="visible"/>
  </g>
</svg>
