<svg xmlns="http://www.w3.org/2000/svg" viewBox="0 0 71.9 130.43">
  <path d="M8 0C3.57 0 0 3.57 0 8v114.43c0 4.43 3.57 8 8 8h55.9c4.43 0 8-3.57 8-8V8c0-4.43-3.57-8-8-8H8zM5.21 11.22h61.47v95.96H5.21V11.22z"/>
  <path fill="#f46c20" d="M30.2 113.06h11.5v11.49H30.2z"/>
  <path fill="#50bd8d" d="M24.3 50.47V68.8a3.02 3.02 0 003.02 3.02h.86v6.87a2.92 2.92 0 002.93 2.83c1.57 0 2.9-1.27 2.9-2.83v-6.87h3.88v6.87a2.92 2.92 0 002.93 2.83 2.88 2.88 0 002.9-2.83v-6.87h.85a3.02 3.02 0 003.02-3.03V50.46zm31.06 2.85a2.92 2.92 0 00-2.91-2.86 2.92 2.92 0 00-2.91 2.86v11.85c0 1.57 1.34 2.76 2.9 2.76 1.57 0 2.92-1.19 2.92-2.76zm-33 0a2.92 2.92 0 00-2.91-2.86 2.92 2.92 0 00-2.91 2.86v11.85c0 1.57 1.34 2.76 2.9 2.76 1.57 0 2.92-1.19 2.92-2.76zm19.31-14.2l1.83-3.6c.13-.26-.04-.59-.32-.59a.36.36 0 00-.32.2l-1.84 3.65a11.98 11.98 0 00-10.15 0l-1.84-3.64a.36.36 0 00-.32-.2c-.28 0-.45.32-.32.58l1.83 3.6c-3.58 2.01-5.92 5.02-5.92 9.4h23.3c0-4.38-2.34-7.39-5.92-9.4zM31.1 44.65a.97.97 0 01-.98-.97.97.97 0 011.94 0 .97.97 0 01-.96.97zm9.7 0a.97.97 0 110-1.94.97.97 0 010 1.94z"/>
</svg>
