<svg xmlns="http://www.w3.org/2000/svg" viewBox="0 0 57.87 66.84">
  <path d="M5.67 6.1a3 3 0 00-3 3v32.62a3 3 0 003 3h46.38a3 3 0 003-3V9.1a3 3 0 00-3-3zm.86 3.8h3.78v3.78H6.53zm5.11 0h3.78v3.78h-3.78zm5.1 0h3.79v3.78h-3.78V9.9zm5.11 0h3.78v3.78h-3.78zm5.11 0h3.78v3.78h-3.78zm5.1 0h3.79v3.78h-3.78V9.9zm5.12 0h3.78v3.78h-3.78zm5.1 0h3.78v3.78h-3.78zm5.11 0h3.78v3.78h-3.78zM6.57 15.22h3.78v9.13H6.57zm5.1 0h3.78V19h-3.78zm5.11 0h3.78V19h-3.78zm5.1 0h3.79V19h-3.78v-3.78zm5.11 0h3.79V19h-3.79zm5.11 0h3.78V19h-3.77v-3.78zm5.11 0h3.78V19h-3.78zm5.1 0h3.79V19h-3.78v-3.78zm5.12 0h3.77V19h-3.77zm-35.77 5.37h3.78v3.78h-3.78zm5.1 0h3.79v3.78h-3.78v-3.78zm5.11 0h3.78v3.78h-3.78zm5.11 0h3.78v3.78h-3.78zm5.1 0h3.79v3.78h-3.78v-3.78zm5.12 0h3.78v3.78H37.2zm5.1 0h3.78v3.78H42.3zm5.11 0h3.78v3.78h-3.78zm-25.57 5.25h14v3.78h-14zm.95 6.08h12.32a1 1 0 011 1v8.77a1 1 0 01-1 1H22.79a1 1 0 01-1-1v-8.77a1 1 0 011-1z"/>
  <path fill="#fff" d="M6.51 25.84v3.78h3.79v-3.78H6.52zm5.12 0v3.78h3.78v-3.78zm5.1 0v3.78h3.78v-3.78zm20.43 0v3.78h3.78v-3.78zm5.11 0v3.78h3.78v-3.78zm5.1 0v3.78h3.79v-3.78h-3.78z"/>
  <path fill="#724e47" d="M18.51 25.75c-1.05 0-1.88.9-1.88 2v9.92h-.03a1.9 1.9 0 00-1.84-1.7c-.97 0-1.75.77-1.85 1.78h-.04c-.1-1-.89-1.78-1.85-1.78-.99 0-1.79.81-1.86 1.85h-.03c-.07-1.04-.87-1.85-1.85-1.85-1.04 0-1.88.89-1.88 2V50c0 .94.6 1.72 1.42 1.94.38.42.74.6.74.6v3.49h9.59v-2.84c0-.19.52-.9.52-.9l1.47-1.87a2.03 2.03 0 001.58-1.02l6.02-10.42c.55-.96.28-2.15-.62-2.67s-2.07-.17-2.62.8l-3.1 5.35-.03-3.74V27.75c0-1.1-.83-2-1.87-2z"/>
  <path fill="#4fbf88" d="M6.25 56.03h11.43v3.54H6.25z"/>
  <path fill="#0b6e30" d="M4.56 59.57h13.12v7.27H4.56z"/>
  <circle cx="7.39" cy="62.83" r="1.14" fill="#4fbf88"/>
  <path fill="#724e47" d="M38.75 25.88c-.93 0-1.67.9-1.67 2v12.03c0 .1 0 .19.02.28l-.02 2.37-3.8-5.29c-.64-.9-1.84-1.14-2.68-.54-.84.6-1 1.82-.36 2.72l7.02 9.78c.1.14.2.25.32.35l2.23 2.84s.52.7.52.9v2.83h9.6v-3.5s1.57-.74 1.52-2.9c-.04-2.18-.1-11.75-.1-11.75h-.01V27.88c0-1.1-.75-2-1.67-2-.93 0-1.67.9-1.67 2v10.05h-.3V27.88c0-1.1-.75-2-1.67-2-.93 0-1.67.9-1.67 2v9.98h-.3v-9.98c0-1.1-.75-2-1.67-2-.93 0-1.67.9-1.67 2v9.91h-.3v-9.91c0-1.1-.75-2-1.67-2z"/>
  <path fill="#4fbf88" d="M39.72 56.03h11.43v3.54H39.72z"/>
  <path fill="#0b6e30" d="M39.72 59.57h13.12v7.27H39.72z"/>
  <circle cx="50.01" cy="62.83" r="1.14" fill="#4fbf88"/>
  <path d="M3.31.01C1.47.01 0 1.84 0 4.12h57.87c0-2.28-1.48-4.12-3.32-4.12z"/>
</svg>
