<svg xmlns="http://www.w3.org/2000/svg" viewBox="0 0 18.96 34.396" height="130" width="71.66">
  <path fill="#f46c20" filter="url(#filter9450)" d="M-193.962 206.484h3.031v3.031h-3.031z" transform="translate(201.927 -176.67)"/>
  <path fill="#fff" d="M1.374 2.96h16.21v25.304H1.375z"/>
  <path d="M2.11 0C.94 0 0 .941 0 2.11v30.176c0 1.169.94 2.11 2.11 2.11h14.74c1.17 0 2.11-.941 2.11-2.11V2.11C18.96.94 18.02 0 16.85 0zm-.736 2.96h16.212v25.304H1.374z"/>
  <path d="M13.984 17.119c-.354 1.027-1.414 2.845-2.506 2.865-.724.013-.957-.43-1.785-.43-.827 0-1.086.416-1.77.443-1.159.045-2.947-2.624-2.947-4.952 0-2.138 1.49-3.197 2.792-3.217.698-.012 1.357.47 1.783.47.427 0 1.228-.58 2.07-.495.352.015 1.341.142 1.976 1.07-1.684 1.1-1.422 3.4.387 4.246zm-2.352-7.93c-1.273.051-2.311 1.387-2.166 2.491 1.176.091 2.305-1.227 2.166-2.491z" fill="#7f8283"/>
  <path fill="#f46c20" d="M7.965 29.637h3.03v3.031h-3.03z"/>
</svg>
