<svg xmlns="http://www.w3.org/2000/svg" viewBox="0 0 71.9 130.43">
  <path d="M8 0C3.57 0 0 3.57 0 8v114.43c0 4.43 3.57 8 8 8h55.9c4.43 0 8-3.57 8-8V8c0-4.43-3.57-8-8-8H8zM5.21 11.22h61.47v95.96H5.21V11.22z"/>
  <path fill="#f46c20" d="M30.2 113.06h11.5v11.49H30.2z"/>
  <path fill="#7f8283" d="M52.97 67.02c-1.34 3.88-5.34 10.76-9.47 10.83-2.73.05-3.61-1.62-6.74-1.62-3.13 0-4.1 1.57-6.7 1.67-4.37.17-11.13-9.92-11.13-18.71 0-8.08 5.63-12.09 10.55-12.16 2.64-.05 5.13 1.78 6.74 1.78 1.61 0 4.64-2.2 7.82-1.88 1.33.06 5.07.54 7.47 4.05-6.37 4.15-5.37 12.85 1.46 16.04zm-8.89-29.97c-4.8.2-8.73 5.24-8.18 9.42 4.44.34 8.7-4.64 8.18-9.42z"/>
</svg>
