<svg xmlns="http://www.w3.org/2000/svg" viewBox="0 0 184.54 125.98">
  <path fill="#8f8f8f" d="M175.5 31.66H0V18.68h175.5zm-7.92 75.85H8.01c-4.43 0-8-3.57-8-8V26.68c0-4.43 3.57-8 8-8h159.57c4.43 0 8 3.57 8 8v72.83c0 4.43-3.57 8-8 8z"/>
  <path fill="#020004" d="M.07 75.85h175.5v12.97H.07zM8 0h159.57c4.43 0 8 3.57 8 8v72.82c0 4.44-3.57 8-8 8H8c-4.43 0-8-3.56-8-8V8c0-4.43 3.57-8 8-8z"/>
  <path fill="#fff" d="M6.69 6.19h163.03v76.44H6.69z"/>
  <path d="M69.12 107.45h38.18v15.5H69.12z"/>
  <path fill="#8f8f8f" d="M63.35 122.57h49.7v3.21h-49.7z"/>
  <path d="M81.92 94.39h12.56v7.22H81.92z"/>
  <path fill="#ccc" d="M15.62 10.96h147.1v68.97H15.62z"/>
  <path fill="#e6e6e6" d="M15.62 10.96h17.74v4.65H15.62z"/>
  <path fill="#e6e6e6" d="M15.62 15.6h147.1v64.32H15.62z"/>
  <path fill="#fff" d="M17.97 17.51h142.42v4.83H17.97zm0 6.25h142.42v53.78H17.97zm109.79 56.16h23.69v36.97h-23.69z"/>
  <path d="M128.84 75.6a3.08 3.08 0 00-3.08 3.08v44.09c0 1.7 1.37 3.08 3.08 3.08h21.53c1.7 0 3.08-1.38 3.08-3.08V78.68c0-1.7-1.37-3.08-3.08-3.08zm-1.08 4.33h23.69v36.96h-23.69z"/>
  <path fill="#f46c20" d="M137.39 119.16h4.43v4.42h-4.43z"/>
  <path fill="#fff" d="M158.86 80.06h23.68v36.96h-23.68z"/>
  <path d="M159.93 75.73a3.08 3.08 0 00-3.08 3.08v44.09c0 1.7 1.37 3.08 3.08 3.08h21.53a3.07 3.07 0 003.08-3.08V78.81c0-1.7-1.37-3.08-3.08-3.08zm-1.07 4.33h23.68v36.96h-23.68z"/>
  <path fill="#f46c20" d="M168.49 119.29h4.42v4.42h-4.43z"/>
  <path fill="#50bf88" d="M20.62 26.94h45.65v22.83H20.62z"/>
  <path fill="#115ab9" d="M20.62 51.88h45.65v22.83H20.62z"/>
  <path d="M68.38 26.94h71.91v1.66H68.38zm0 2.72h82.88v1.66H68.38zm0 2.72h39.79v1.66H68.38zm0 2.72h33.55v1.66H68.38zm0 7.56h71.91v1.66H68.38zm0 2.72h82.88v1.66H68.38zm0 2.72h39.79v1.66H68.38zm0 4.31h78.53v1.66H68.38zm0 2.72h39.79v1.66H68.38z"/>
  <circle cx="170.57" cy="98.92" r="5.55" fill="#3e9ef8"/>
  <path fill="#64b1f9" d="M169.77 98.18l-1.75 4.35 3.38-3.13 1.72-4.3zm.9 1.18a.57.57 0 11-.17-1.13c.33-.05.62.17.66.48.05.32-.17.6-.48.65zm-2.38-7.47c0-.38.4-.7.9-.7s.9.32.9.7a.6.6 0 01-.17.4.98.98 0 00-.15-.22.32.32 0 00.06-.18c0-.24-.3-.43-.64-.43s-.63.2-.63.43c0 .14.1.28.27.35a.97.97 0 00-.05.26c-.3-.11-.49-.34-.49-.61zm.6 7.76l-2.27-.03 2.08-.98c.02-.25.08-.5.2-.7l-.97-1 1.3.52c.14-.15.3-.27.5-.37l.11-2.24.93 2.04-.32.3a1.6 1.6 0 00-1.4 2.03zm1.7-7.23c-.26 0-.52 0-.77.04-.1-.25-.3-.48-.55-.42-.27.06-.34.35-.33.59a6.45 6.45 0 001.65 12.67 6.45 6.45 0 100-12.88zm1.4 11.5l-.43-.63-.1.76a5.28 5.28 0 01-6.02-4.03l.57-.37-.67-.17a5.26 5.26 0 014.01-5.74l.36.55.13-.64a5.28 5.28 0 015.84 3.8l-.56.45.67.06a5.27 5.27 0 01-3.8 5.97zm2.45-5.88l-1.98.94a1.9 1.9 0 01-.14.53l1 1.03L172 100c-.15.17-.33.3-.53.42l-.06 2.28-.98-2.04.36-.33a1.6 1.6 0 001.33-2l.16-.4z"/>
  <path fill="#fff" d="M168.02 102.53l1.75-4.35 1.63 1.22z"/>
  <path fill="none" d="M168.02 102.53l1.75-4.35 1.63 1.22z"/>
  <path fill="#e7402c" d="M173.15 95.05l-1.75 4.35-1.63-1.22z"/>
  <path fill="#dc4c40" d="M135.04 95.4a6.18 6.18 0 0110.22 1.23h-4.8c-.86 0-1.42-.03-2.02.3a2.86 2.86 0 00-1.44 1.88z"/>
  <path fill="#4a8af4" d="M137.68 99.44a2.06 2.06 0 104.13 0 2.06 2.06 0 00-4.13 0z"/>
  <path fill="#1fa363" d="M140.54 102.14a2.78 2.78 0 01-3.25-1.32l-2.74-4.77a6.2 6.2 0 004 9.47z"/>
  <path fill="#ffcd41" d="M141.66 97.38c.96.9 1.17 2.34.52 3.47l-2.82 4.77a6.2 6.2 0 006.23-8.24z"/>
</svg>
