<svg xmlns="http://www.w3.org/2000/svg" width="1000" height="1000" viewBox="0 0 1000 1000">
  <defs>
    <style>
      .cls-1 {
        fill-rule: evenodd;
      }
    </style>
  </defs>
  <path id="Hearing" class="cls-1" d="M595.368,466.262a30,30,0,0,0,40.177-13.631,150.739,150.739,0,0,0,15.64-67.266c0-83.922-68.275-152.2-152.2-152.2s-152.2,68.275-152.2,152.2a151.9,151.9,0,0,0,9.121,51.979l-0.178.068a97.958,97.958,0,0,1-.073,79.066l0.143,0.044a83.391,83.391,0,1,0,111.416-44.436q-0.753-.366-1.534-0.693l-0.469-.2-0.1-.044a92.212,92.212,0,1,1,126.072-85.783,91.226,91.226,0,0,1-9.449,40.719A30,30,0,0,0,595.368,466.262Zm86.908-271.913A267.552,267.552,0,0,0,250.518,270.68a30,30,0,0,0,54.39,25.331A207.533,207.533,0,0,1,493.125,176c114.416,0,207.5,93.084,207.5,207.5a206.718,206.718,0,0,1-32.3,111.232L435.512,796.644c-0.132.171-.253,0.346-0.38,0.519a77.232,77.232,0,0,1-135.757-50.394V688.59a30,30,0,0,0-60,0v58.179C239.375,822.438,300.937,884,376.606,884a136.778,136.778,0,0,0,106.329-50.471,30.444,30.444,0,0,0,1.88-2.566l231.87-300.7c0.06-.077.113-0.158,0.172-0.236,0.132-.175.26-0.352,0.389-0.531q0.375-.519.724-1.048c0.057-.088.121-0.169,0.178-0.258,0.076-.117.148-0.236,0.224-0.354l0.1-.151A267.565,267.565,0,0,0,682.276,194.349Z"/>
</svg>
